<mxfile host="app.diagrams.net" modified="2022-06-28T13:36:40.039Z" agent="5.0 (Windows NT 10.0; Win64; x64) AppleWebKit/537.36 (KHTML, like Gecko) Chrome/102.0.0.0 Safari/537.36" etag="lqnGvfRDxs97AthOVZio" version="18.2.0" type="github">
  <diagram id="C5RBs43oDa-KdzZeNtuy" name="Page-1">
    <mxGraphModel dx="1422" dy="762" grid="1" gridSize="10" guides="1" tooltips="1" connect="1" arrows="1" fold="1" page="1" pageScale="1" pageWidth="827" pageHeight="1169" math="0" shadow="0">
      <root>
        <mxCell id="WIyWlLk6GJQsqaUBKTNV-0" />
        <mxCell id="WIyWlLk6GJQsqaUBKTNV-1" parent="WIyWlLk6GJQsqaUBKTNV-0" />
        <mxCell id="w6VTJ1lofR3oEU0GAljk-0" value="1" style="ellipse;whiteSpace=wrap;html=1;aspect=fixed;" vertex="1" parent="WIyWlLk6GJQsqaUBKTNV-1">
          <mxGeometry x="230" y="90" width="50" height="50" as="geometry" />
        </mxCell>
        <mxCell id="w6VTJ1lofR3oEU0GAljk-1" value="2" style="ellipse;whiteSpace=wrap;html=1;aspect=fixed;" vertex="1" parent="WIyWlLk6GJQsqaUBKTNV-1">
          <mxGeometry x="230" y="220" width="50" height="50" as="geometry" />
        </mxCell>
        <mxCell id="w6VTJ1lofR3oEU0GAljk-2" value="" style="endArrow=classic;html=1;rounded=0;exitX=0.5;exitY=1;exitDx=0;exitDy=0;" edge="1" parent="WIyWlLk6GJQsqaUBKTNV-1" source="w6VTJ1lofR3oEU0GAljk-0" target="w6VTJ1lofR3oEU0GAljk-1">
          <mxGeometry width="50" height="50" relative="1" as="geometry">
            <mxPoint x="390" y="420" as="sourcePoint" />
            <mxPoint x="440" y="370" as="targetPoint" />
          </mxGeometry>
        </mxCell>
        <mxCell id="w6VTJ1lofR3oEU0GAljk-3" value="2A1" style="ellipse;whiteSpace=wrap;html=1;aspect=fixed;" vertex="1" parent="WIyWlLk6GJQsqaUBKTNV-1">
          <mxGeometry x="330" y="300" width="50" height="50" as="geometry" />
        </mxCell>
        <mxCell id="w6VTJ1lofR3oEU0GAljk-4" value="" style="endArrow=classic;html=1;rounded=0;" edge="1" parent="WIyWlLk6GJQsqaUBKTNV-1" target="w6VTJ1lofR3oEU0GAljk-3" source="w6VTJ1lofR3oEU0GAljk-1">
          <mxGeometry width="50" height="50" relative="1" as="geometry">
            <mxPoint x="345" y="250" as="sourcePoint" />
            <mxPoint x="530" y="480" as="targetPoint" />
          </mxGeometry>
        </mxCell>
        <mxCell id="w6VTJ1lofR3oEU0GAljk-5" value="3" style="ellipse;whiteSpace=wrap;html=1;aspect=fixed;" vertex="1" parent="WIyWlLk6GJQsqaUBKTNV-1">
          <mxGeometry x="230" y="360" width="50" height="50" as="geometry" />
        </mxCell>
        <mxCell id="w6VTJ1lofR3oEU0GAljk-6" value="" style="endArrow=classic;html=1;rounded=0;" edge="1" target="w6VTJ1lofR3oEU0GAljk-5" parent="WIyWlLk6GJQsqaUBKTNV-1" source="w6VTJ1lofR3oEU0GAljk-1">
          <mxGeometry width="50" height="50" relative="1" as="geometry">
            <mxPoint x="255" y="280" as="sourcePoint" />
            <mxPoint x="440" y="510" as="targetPoint" />
          </mxGeometry>
        </mxCell>
        <mxCell id="w6VTJ1lofR3oEU0GAljk-7" value="2B1" style="ellipse;whiteSpace=wrap;html=1;aspect=fixed;" vertex="1" parent="WIyWlLk6GJQsqaUBKTNV-1">
          <mxGeometry x="430" y="280" width="50" height="50" as="geometry" />
        </mxCell>
        <mxCell id="w6VTJ1lofR3oEU0GAljk-8" value="" style="endArrow=classic;html=1;rounded=0;exitX=1;exitY=0.5;exitDx=0;exitDy=0;" edge="1" target="w6VTJ1lofR3oEU0GAljk-7" parent="WIyWlLk6GJQsqaUBKTNV-1" source="w6VTJ1lofR3oEU0GAljk-1">
          <mxGeometry width="50" height="50" relative="1" as="geometry">
            <mxPoint x="349.9976349898294" y="264.31063714979246" as="sourcePoint" />
            <mxPoint x="609.12" y="480" as="targetPoint" />
          </mxGeometry>
        </mxCell>
        <mxCell id="w6VTJ1lofR3oEU0GAljk-9" value="2B1A1" style="ellipse;whiteSpace=wrap;html=1;aspect=fixed;" vertex="1" parent="WIyWlLk6GJQsqaUBKTNV-1">
          <mxGeometry x="520" y="360" width="50" height="50" as="geometry" />
        </mxCell>
        <mxCell id="w6VTJ1lofR3oEU0GAljk-11" value="" style="endArrow=classic;html=1;rounded=0;entryX=0.5;entryY=0;entryDx=0;entryDy=0;exitX=1;exitY=0.5;exitDx=0;exitDy=0;" edge="1" parent="WIyWlLk6GJQsqaUBKTNV-1" source="w6VTJ1lofR3oEU0GAljk-7" target="w6VTJ1lofR3oEU0GAljk-9">
          <mxGeometry width="50" height="50" relative="1" as="geometry">
            <mxPoint x="390" y="420" as="sourcePoint" />
            <mxPoint x="440" y="370" as="targetPoint" />
          </mxGeometry>
        </mxCell>
        <mxCell id="w6VTJ1lofR3oEU0GAljk-12" value="2B2" style="ellipse;whiteSpace=wrap;html=1;aspect=fixed;" vertex="1" parent="WIyWlLk6GJQsqaUBKTNV-1">
          <mxGeometry x="430" y="360" width="50" height="50" as="geometry" />
        </mxCell>
        <mxCell id="w6VTJ1lofR3oEU0GAljk-13" value="" style="endArrow=classic;html=1;rounded=0;entryX=0.5;entryY=0;entryDx=0;entryDy=0;exitX=0.5;exitY=1;exitDx=0;exitDy=0;" edge="1" parent="WIyWlLk6GJQsqaUBKTNV-1" source="w6VTJ1lofR3oEU0GAljk-7" target="w6VTJ1lofR3oEU0GAljk-12">
          <mxGeometry width="50" height="50" relative="1" as="geometry">
            <mxPoint x="490" y="315" as="sourcePoint" />
            <mxPoint x="555" y="370" as="targetPoint" />
          </mxGeometry>
        </mxCell>
      </root>
    </mxGraphModel>
  </diagram>
</mxfile>
